<?xml version="1.0" encoding="UTF-8"?>
<svg width="960" height="960" viewBox="0 0 24 24" xmlns="http://www.w3.org/2000/svg" fill="black">
  <path d="M 16.792 3.904 A 4.989 4.989 0 0 1 21.5 9.122 c 0 3.072 -2.652 4.959 -5.197 7.222 c -2.512 2.243 -3.865 3.469 -4.303 3.752 c -0.477 -0.309 -2.143 -1.823 -4.303 -3.752 C 5.141 14.072 2.5 12.167 2.5 9.122 a 4.989 4.989 0 0 1 4.708 -5.218 q 0.4 4.21 4.21 0 0 1 3.675 1.941 c 0.84 1.175 0.98 1.763 1.12 1.763 s 0.278 -0.588 1.11 -1.766 q 0.47 1.7 1.47 0 1 3.679 -1.938 m 0.2 -2.64 q 0.64 0.0 -4.797 2.127 q -0.652 0.652 0 0 -4.797 -2.127 A 6.985 6.985 0 0 0 9.122 c 0.531 6.215 5.587 6.015 7.97 0.823 q 0.406 0.569 0.494 0.853 a 0.747 1.027 0.918 0 0 1 0.3 0.3 c 0.3 0.518 3.818 a 2 2 0 0 0 2.174 q 0 45.263 45.263 q 0 0 2.626 -3.115 l 0.922 -0.824 c 0.293 -0.26 0.59 -0.519 0.885 -0.774 c 2.334 -2.025 4.98 -4.32 4.98 -7.94 a 6.985 6.985 0 0 0 -6.708 -7.218 Z"/>
  </svg>
