<svg version="1.1" id="Слой_1" xmlns="http://www.w3.org/2000/svg" xmlns:xlink="http://www.w3.org/1999/xlink" x="0px" y="0px" viewBox="0 0 1215 700" style="enable-background:new 0 0 1215 700;" xml:space="preserve">
<style type="text/css">
	.st0{fill:url(#SVGID_1_);}
	.st1{opacity:0.3;fill:#765CF6;}
	.st2{fill:#765CF6;}
	.st3{fill:#CDFC81;}
	.st4{fill:#FFFFFF;}
</style>
<g>
	<linearGradient id="SVGID_1_" gradientUnits="userSpaceOnUse" x1="723.4138" y1="336" x2="1070.5406" y2="336">
		<stop offset="0" style="stop-color:#765CF6;stop-opacity:0.3"></stop>
		<stop offset="1" style="stop-color:#765CF6"></stop>
	</linearGradient>
	<path class="st0" d="M954.82,336c0-63.91,51.81-115.72,115.72-115.72H723.41v231.44h347.13 C1006.63,451.72,954.82,399.91,954.82,336z"></path>
	<path class="st1" d="M402.2,579.94h-15.05v-2.82l16.52,0l0.02,2.82L402.2,579.94z M370.62,579.94h-16.53v-2.82h16.53V579.94z M340.18,579.55c-5.51-0.31-11.08-0.81-16.55-1.5l0.35-2.79c5.4,0.67,10.91,1.17,16.36,1.48L340.18,579.55z M420.29,579.28
		l-0.21-2.81c5.44-0.4,10.94-0.99,16.33-1.76l0.4,2.79C431.36,578.27,425.8,578.87,420.29,579.28z M307.22,575.43
		c-5.42-1.06-10.86-2.31-16.19-3.74l0.73-2.72c5.27,1.41,10.65,2.65,16,3.7L307.22,575.43z M453.18,574.59l-0.59-2.75
		c5.34-1.14,10.7-2.47,15.94-3.97l0.77,2.71C464,572.09,458.58,573.44,453.18,574.59z M275.13,566.85
		c-5.21-1.79-10.43-3.78-15.5-5.92l1.09-2.59c5.02,2.11,10.17,4.08,15.32,5.85L275.13,566.85z M485.11,565.45l-0.96-2.65
		c5.13-1.86,10.27-3.92,15.26-6.13l1.14,2.58C495.5,561.48,490.31,563.57,485.11,565.45z M244.56,553.96
		c-4.92-2.48-9.81-5.17-14.56-7.99l1.44-2.42c4.69,2.79,9.53,5.44,14.39,7.89L244.56,553.96z M515.53,552l-1.31-2.49
		c4.82-2.54,9.62-5.29,14.27-8.16l1.48,2.4C525.27,546.65,520.41,549.43,515.53,552z M216.01,537.01c-4.54-3.13-9.03-6.46-13.35-9.9
		l1.75-2.2c4.27,3.39,8.7,6.69,13.19,9.78L216.01,537.01z M543.81,534.52l-1.64-2.29c4.43-3.18,8.82-6.55,13.03-10.02l1.79,2.17
		C552.73,527.9,548.3,531.31,543.81,534.52z M190.02,516.34c-4.08-3.72-8.08-7.63-11.89-11.62l2.04-1.95
		c3.77,3.94,7.72,7.8,11.75,11.48L190.02,516.34z M569.45,513.38l-1.94-2.05c3.96-3.75,7.85-7.68,11.54-11.69l2.07,1.91
		C577.38,505.61,573.45,509.59,569.45,513.38z M167.06,492.32c-3.53-4.24-6.97-8.65-10.21-13.12l2.28-1.65
		c3.2,4.42,6.6,8.78,10.09,12.97L167.06,492.32z M591.97,488.96l-2.19-1.76c3.42-4.25,6.73-8.67,9.85-13.14l2.31,1.61
		C598.78,480.19,595.43,484.67,591.97,488.96z M147.56,465.41c-2.93-4.68-5.73-9.52-8.33-14.4l2.48-1.33
		c2.57,4.81,5.34,9.6,8.23,14.23L147.56,465.41z M610.97,461.73l-2.41-1.45c2.81-4.67,5.49-9.5,7.97-14.35l2.51,1.28
		C616.53,452.12,613.82,457,610.97,461.73z M131.9,436.08c-2.26-5.04-4.38-10.23-6.29-15.41l2.64-0.97
		c1.89,5.12,3.98,10.25,6.21,15.23L131.9,436.08z M120.41,404.88c-1.55-5.3-2.93-10.71-4.11-16.1l2.75-0.6
		c1.17,5.33,2.53,10.68,4.06,15.92L120.41,404.88z M113.32,372.43c-0.81-5.45-1.43-11.01-1.87-16.51l2.81-0.22
		c0.43,5.44,1.05,10.93,1.85,16.32L113.32,372.43z M110.7,339.32c-0.01-0.93-0.02-1.85-0.02-2.78c0-4.6,0.13-9.25,0.39-13.84
		l2.81,0.16c-0.25,4.53-0.38,9.13-0.38,13.68c0,0.92,0.01,1.83,0.02,2.75L110.7,339.32z M115.36,306.5l-2.79-0.35
		c0.68-5.48,1.56-11,2.62-16.41l2.76,0.54C116.9,295.63,116.03,301.09,115.36,306.5z M121.64,274.28l-2.72-0.73
		c1.42-5.33,3.05-10.68,4.84-15.9l2.66,0.91C124.65,263.72,123.05,269.01,121.64,274.28z M132.26,243.24l-2.59-1.09
		c2.14-5.08,4.48-10.15,6.96-15.07l2.51,1.27C136.69,233.21,134.38,238.22,132.26,243.24z M147.04,213.95l-2.42-1.44
		c2.81-4.74,5.83-9.45,8.96-13.99l2.32,1.6C152.8,204.61,149.82,209.26,147.04,213.95z M607.04,210.3
		c-2.87-4.64-5.93-9.24-9.11-13.68l2.29-1.64c3.22,4.49,6.32,9.15,9.22,13.84L607.04,210.3z M165.67,186.93l-2.2-1.75
		c3.43-4.32,7.06-8.57,10.78-12.65l2.08,1.9C172.65,178.45,169.06,182.66,165.67,186.93z M587.91,183.59
		c-3.47-4.21-7.13-8.35-10.88-12.32l2.05-1.93c3.79,4.01,7.49,8.2,11,12.46L587.91,183.59z M187.8,162.67l-1.95-2.03
		c3.99-3.81,8.16-7.54,12.4-11.08l1.8,2.16C195.86,155.22,191.74,158.9,187.8,162.67z M565.35,159.73
		c-4.01-3.7-8.19-7.31-12.44-10.73l1.77-2.19c4.3,3.46,8.53,7.11,12.59,10.85L565.35,159.73z M213.02,141.63l-1.65-2.28
		c4.47-3.24,9.11-6.37,13.79-9.3l1.49,2.39C222.03,135.33,217.45,138.42,213.02,141.63z M539.77,139.15
		c-4.47-3.12-9.11-6.13-13.77-8.94l1.45-2.41c4.72,2.84,9.41,5.88,13.94,9.04L539.77,139.15z M240.88,124.2l-1.33-2.48
		c4.87-2.6,9.9-5.07,14.93-7.33l1.15,2.57C250.66,119.19,245.7,121.63,240.88,124.2z M511.65,122.24
		c-4.85-2.48-9.85-4.83-14.85-6.97l1.11-2.59c5.07,2.17,10.12,4.54,15.03,7.05L511.65,122.24z M270.87,110.74l-0.97-2.64
		c5.18-1.91,10.49-3.66,15.78-5.21l0.79,2.7C281.23,107.12,275.99,108.85,270.87,110.74z M481.5,109.33
		c-5.15-1.8-10.43-3.44-15.69-4.88l0.74-2.72c5.32,1.46,10.66,3.11,15.87,4.93L481.5,109.33z M302.38,101.53l-0.6-2.75
		c5.38-1.18,10.88-2.19,16.35-3l0.41,2.79C313.14,99.36,307.7,100.36,302.38,101.53z M449.83,100.67
		c-5.34-1.07-10.79-1.97-16.2-2.68l0.36-2.79c5.48,0.71,10.99,1.63,16.4,2.71L449.83,100.67z M334.86,96.71l-0.22-2.81
		c5.49-0.43,11.07-0.69,16.6-0.75l0.03,2.82C345.81,96.03,340.28,96.28,334.86,96.71z M417.28,96.42
		c-4.99-0.31-10.06-0.46-15.08-0.46h-1.35v-2.82h1.35c5.08,0,10.21,0.16,15.25,0.47L417.28,96.42z M384.31,95.96h-16.53v-2.82h16.53
		V95.96z"></path>
	<path d="M1093.82,224.53c29.77,0,57.77,11.59,78.82,32.65s32.65,49.05,32.65,78.82s-11.59,57.77-32.65,78.82
		s-49.05,32.65-78.82,32.65c-29.77,0-57.77-11.59-78.82-32.65s-32.65-49.05-32.65-78.82s11.59-57.77,32.65-78.82
		S1064.04,224.53,1093.82,224.53 M1093.82,220.28c-63.91,0-115.72,51.81-115.72,115.72s51.81,115.72,115.72,115.72
		c63.91,0,115.72-51.81,115.72-115.72S1157.73,220.28,1093.82,220.28L1093.82,220.28z"></path>
	<g>
		<path class="st2" d="M739.01,220.28H493.95c-33.84,0-61.26,27.43-61.26,61.26v108.91c0,33.84,27.43,61.26,61.26,61.26h245.06
			c33.84,0,61.26-27.43,61.26-61.26V281.54C800.28,247.71,772.85,220.28,739.01,220.28z M642.22,371.58
			c-5.87,9.31-15.01,15.77-25.75,18.2c-3.05,0.69-6.13,1.03-9.18,1.03c-7.69,0-15.24-2.16-21.9-6.37l-58.88-37.14
			c-9.31-5.87-15.77-15.01-18.2-25.75c-2.43-10.73-0.54-21.77,5.33-31.08c5.87-9.31,15.01-15.77,25.75-18.2
			c10.73-2.43,21.77-0.54,31.08,5.33l58.88,37.14c9.31,5.87,15.77,15.01,18.2,25.75C649.98,351.23,648.09,362.27,642.22,371.58z"></path>
		<path class="st2" d="M621.79,326.74l-58.88-37.14c-4.46-2.82-9.45-4.16-14.37-4.16c-8.98,0-17.77,4.46-22.9,12.6
			c-7.95,12.6-4.16,29.33,8.44,37.27l58.88,37.14c6.1,3.85,13.35,5.09,20.39,3.5c7.04-1.59,13.04-5.83,16.89-11.94
			c3.85-6.11,5.09-13.34,3.5-20.39C632.13,336.59,627.89,330.59,621.79,326.74z"></path>
	</g>
	<path class="st3" d="M724.66,350.44c-2.43-10.73-8.89-19.88-18.2-25.75l-58.88-37.14c-9.31-5.87-20.35-7.77-31.08-5.33
		c-10.73,2.43-19.88,8.89-25.75,18.2s-7.77,20.34-5.33,31.08c2.43,10.73,8.9,19.88,18.2,25.75l20.95,13.21
		c2.19-1.81,4.1-3.97,5.66-6.44c1.04-1.64,1.88-3.37,2.53-5.15l-21.58-13.61c-6.1-3.85-10.35-9.85-11.94-16.89
		c-1.59-7.04-0.35-14.28,3.5-20.39c3.85-6.11,9.85-10.35,16.89-11.94c2-0.45,4.02-0.68,6.02-0.68c5.04,0,9.99,1.42,14.36,4.18
		l58.88,37.14c6.11,3.85,10.35,9.85,11.94,16.89c1.59,7.04,0.35,14.28-3.5,20.39c-7.95,12.6-24.67,16.39-37.27,8.44l-25.13-15.85
		c-0.78,1.72-1.68,3.41-2.71,5.04c-1.54,2.44-3.3,4.67-5.26,6.7l25.54,16.11c6.66,4.2,14.21,6.37,21.9,6.37
		c3.05,0,6.13-0.34,9.18-1.03c10.73-2.43,19.88-8.89,25.75-18.2S727.09,361.17,724.66,350.44z"></path>
	<g>
		<path class="st4" d="M740,339.35l0.87,37.51l2.26,97.39l0.6,25.62l20.76-15.02l8.91-6.45l11.28,27.17l5.52,13.3l12.9-6.4
			l11.5-5.71l11.11-5.51l-4.58-11.53l-10.4-26.2l7.75-0.67l26.25-2.29l-17.23-19.94l-62.98-72.89L740,339.35L740,339.35z"></path>
		<polygon points="824.18,452.21 750.75,367.24 753.39,480.41 777.84,462.72 795.4,505.02 812.91,496.33 796.35,454.64 		"></polygon>
	</g>
	<path class="st2" d="M313.6,83.86c-33.39,0-60.45,27.06-60.45,60.45s27.06,60.45,60.45,60.45c33.39,0,60.45-27.06,60.45-60.45
		S346.99,83.86,313.6,83.86z M346.04,147.14h-29.6v29.6c0,1.57-1.27,2.83-2.83,2.83s-2.83-1.27-2.83-2.83v-29.6h-29.6
		c-1.57,0-2.83-1.27-2.83-2.83s1.27-2.83,2.83-2.83h29.6v-29.6c0-1.57,1.27-2.83,2.83-2.83s2.83,1.27,2.83,2.83v29.6h29.6
		c1.57,0,2.83,1.27,2.83,2.83S347.6,147.14,346.04,147.14z"></path>
	<g>
		<path d="M417.02,15.22c22.3,0,40.45,18.15,40.45,40.45v79.47c0,22.3-18.14,40.45-40.45,40.45h-79.47
			c-22.3,0-40.45-18.14-40.45-40.45V55.67c0-22.3,18.14-40.45,40.45-40.45H417.02 M417.02,10.97h-79.47
			c-24.69,0-44.7,20.01-44.7,44.7v79.47c0,24.69,20.01,44.7,44.7,44.7h79.47c24.69,0,44.7-20.01,44.7-44.7V55.67
			C461.72,30.98,441.71,10.97,417.02,10.97L417.02,10.97z"></path>
		<g>
			<path d="M424.6,55.91h-77.32c-3.84,0-6.96,3.12-6.96,6.96v5.37h-10.36c-3.84,0-6.96,3.12-6.96,6.96v52.73
				c0,3.84,3.12,6.96,6.96,6.96h77.32c3.84,0,6.96-3.12,6.96-6.96v-5.37h10.36c3.84,0,6.96-3.12,6.96-6.96V62.87
				C431.56,59.03,428.44,55.91,424.6,55.91z M347.28,60.16h77.32c1.49,0,2.71,1.21,2.71,2.71v5.75l-41.37,23.96l-41.37-23.96v-5.75
				C344.58,61.38,345.79,60.16,347.28,60.16z M329.97,72.49h10.36v16.02l-13.06-7.57V75.2C327.26,73.71,328.48,72.49,329.97,72.49z
				 M409.99,127.93c0,1.49-1.21,2.71-2.71,2.71h-77.32c-1.49,0-2.71-1.21-2.71-2.71V85.86l13.06,7.57v22.17
				c0,3.84,3.12,6.96,6.96,6.96h62.71V127.93z M424.6,118.31h-77.32c-1.49,0-2.71-1.21-2.71-2.71V73.54l40.3,23.34
				c0.33,0.19,0.7,0.29,1.07,0.29s0.74-0.1,1.07-0.29l40.3-23.34v42.07C427.31,117.1,426.09,118.31,424.6,118.31z"></path>
			<path d="M369.63,98.25h-16.87c-1.17,0-2.13,0.95-2.13,2.13s0.95,2.13,2.13,2.13h16.87c1.17,0,2.13-0.95,2.13-2.13
				S370.8,98.25,369.63,98.25z"></path>
			<path d="M365.49,107.1h-12.74c-1.17,0-2.13,0.95-2.13,2.13s0.95,2.13,2.13,2.13h12.74c1.17,0,2.13-0.95,2.13-2.13
				S366.66,107.1,365.49,107.1z"></path>
		</g>
	</g>
	<path class="st2" d="M65.91,110.1c-33.39,0-60.45,27.06-60.45,60.45c0,33.39,27.06,60.45,60.45,60.45
		c33.39,0,60.45-27.06,60.45-60.45C126.36,137.17,99.29,110.1,65.91,110.1z M60.21,189.57H36.22c-1.57,0-2.83-1.27-2.83-2.83
		s1.27-2.83,2.83-2.83h23.99c1.57,0,2.83,1.27,2.83,2.83S61.78,189.57,60.21,189.57z M67.91,171.03H36.22
		c-1.57,0-2.83-1.27-2.83-2.83s1.27-2.83,2.83-2.83h31.69c1.57,0,2.83,1.27,2.83,2.83S69.47,171.03,67.91,171.03z M86.79,171.03
		h-6.3c-1.57,0-2.83-1.27-2.83-2.83s1.27-2.83,2.83-2.83h6.3c1.57,0,2.83,1.27,2.83,2.83S88.36,171.03,86.79,171.03z M96.79,152.49
		H36.22c-1.57,0-2.83-1.27-2.83-2.83s1.27-2.83,2.83-2.83h60.57c1.57,0,2.83,1.27,2.83,2.83S98.36,152.49,96.79,152.49z"></path>
	<g>
		<path d="M172.77,141.52c22.3,0,40.45,18.14,40.45,40.45v79.47c0,22.3-18.15,40.45-40.45,40.45H93.31
			c-22.3,0-40.45-18.14-40.45-40.45v-79.47c0-22.3,18.15-40.45,40.45-40.45H172.77 M172.77,137.27H93.31
			c-24.69,0-44.7,20.01-44.7,44.7v79.47c0,24.69,20.01,44.7,44.7,44.7h79.47c24.69,0,44.7-20.01,44.7-44.7v-79.47
			C217.47,157.28,197.46,137.27,172.77,137.27L172.77,137.27z"></path>
		<g>
			<path d="M162.19,200.36v-1.51c0-15.96-12.98-28.94-28.94-28.94h-24.14c-15.96,0-28.94,12.98-28.94,28.94v1.65
				c0,14,9.97,25.95,23.71,28.45v1.51c0,15.96,12.98,28.94,28.94,28.94h10.08c0.35,4.25-0.25,7.87-1.83,11.01
				c-0.39,0.78-0.27,1.73,0.32,2.38c0.41,0.46,0.99,0.7,1.58,0.7c0.25,0,0.5-0.04,0.75-0.14c7.77-2.93,14.23-7.83,19.21-14.58
				c13.36-2.8,22.96-14.57,22.96-28.31v-1.65C185.9,214.65,175.66,202.83,162.19,200.36z M84.43,200.5v-1.65
				c0-13.61,11.07-24.68,24.68-24.68h24.14c13.61,0,24.68,11.07,24.68,24.68v1.06c-0.32-0.01-0.65-0.02-0.97-0.02h-24.14
				c-14.55,0-26.62,10.79-28.63,24.79C92.71,222.35,84.43,212.28,84.43,200.5z M181.65,230.47c0,11.97-8.54,22.19-20.31,24.29
				c-0.55,0.1-1.04,0.41-1.36,0.86c-3.65,5.14-8.04,9.03-13.35,11.8c0.72-3.16,0.82-6.65,0.29-10.43c-0.15-1.05-1.05-1.83-2.11-1.83
				h-11.98c-13.61,0-24.68-11.07-24.68-24.68v-1.65c0-13.61,11.07-24.69,24.68-24.69h24.14c13.61,0,24.68,11.07,24.68,24.69V230.47z
				"></path>
			<path d="M166.06,221.99h-40.21c-1.17,0-2.13,0.95-2.13,2.13s0.95,2.13,2.13,2.13h40.21c1.17,0,2.13-0.95,2.13-2.13
				S167.23,221.99,166.06,221.99z"></path>
			<path d="M149.84,233.58h-23.99c-1.17,0-2.13,0.95-2.13,2.13s0.95,2.13,2.13,2.13h23.99c1.17,0,2.13-0.95,2.13-2.13
				S151.01,233.58,149.84,233.58z"></path>
			<path d="M102.39,195.48h12.68c1.17,0,2.13-0.95,2.13-2.13s-0.95-2.13-2.13-2.13h-12.68c-1.17,0-2.13,0.95-2.13,2.13
				S101.22,195.48,102.39,195.48z"></path>
			<path d="M106.01,206.42c1.17,0,2.13-0.95,2.13-2.13s-0.95-2.13-2.13-2.13h-3.62c-1.17,0-2.13,0.95-2.13,2.13s0.95,2.13,2.13,2.13
				H106.01z"></path>
			<path d="M125.21,195.48h3.44c1.17,0,2.13-0.95,2.13-2.13s-0.95-2.13-2.13-2.13h-3.44c-1.17,0-2.13,0.95-2.13,2.13
				S124.03,195.48,125.21,195.48z"></path>
		</g>
	</g>
	<g>
		<path class="st2" d="M319.6,567.13c-33.39,0-60.45,27.06-60.45,60.45s27.06,60.45,60.45,60.45c33.39,0,60.45-27.06,60.45-60.45
			S352.99,567.13,319.6,567.13z M348.06,635.15l-33.13,20.64c-1.46,0.91-3.08,1.37-4.71,1.37c-1.48,0-2.96-0.38-4.33-1.14
			c-2.87-1.6-4.59-4.51-4.59-7.79v-41.28c0-3.29,1.71-6.2,4.59-7.79c2.87-1.59,6.25-1.51,9.04,0.23l33.13,20.64
			c2.63,1.64,4.2,4.47,4.2,7.57C352.26,630.68,350.69,633.51,348.06,635.15z"></path>
		<path class="st2" d="M345.06,624.83l-33.13-20.64c-0.6-0.38-1.19-0.5-1.69-0.5c-0.72,0-1.3,0.26-1.6,0.42
			c-0.5,0.28-1.67,1.11-1.67,2.84v41.28c0,1.72,1.17,2.56,1.67,2.84c0.5,0.28,1.83,0.83,3.29-0.08l33.13-20.64
			c0.97-0.61,1.53-1.61,1.53-2.75S346.03,625.43,345.06,624.83z"></path>
	</g>
	<g>
		<path d="M417.02,497.12c22.3,0,40.45,18.14,40.45,40.45v79.47c0,22.3-18.14,40.45-40.45,40.45h-79.47
			c-22.3,0-40.45-18.14-40.45-40.45v-79.47c0-22.3,18.14-40.45,40.45-40.45H417.02 M417.02,492.87h-79.47
			c-24.69,0-44.7,20.01-44.7,44.7v79.47c0,24.69,20.01,44.7,44.7,44.7h79.47c24.69,0,44.7-20.01,44.7-44.7v-79.47
			C461.72,512.88,441.71,492.87,417.02,492.87L417.02,492.87z"></path>
		<g>
			<path d="M408.62,542.89h-62.68c-8.71,0-15.79,7.08-15.79,15.79v37.23c0,8.71,7.08,15.79,15.79,15.79h62.68
				c8.71,0,15.79-7.08,15.79-15.79v-37.23C424.42,549.98,417.33,542.89,408.62,542.89z M420.16,595.92
				c0,6.36-5.18,11.54-11.54,11.54h-62.68c-6.36,0-11.54-5.18-11.54-11.54v-37.23c0-6.36,5.18-11.54,11.54-11.54h62.68
				c6.36,0,11.54,5.18,11.54,11.54V595.92z"></path>
			<path d="M395.33,572.18l-21.28-13.26c-1.89-1.18-4.17-1.23-6.12-0.15c-1.94,1.08-3.1,3.05-3.1,5.27v26.52
				c0,2.22,1.16,4.19,3.1,5.27c0.93,0.51,1.93,0.77,2.93,0.77c1.1,0,2.2-0.31,3.19-0.92l21.28-13.26c1.78-1.11,2.84-3.02,2.84-5.12
				C398.17,575.21,397.11,573.29,395.33,572.18z M393.08,578.81l-21.28,13.26c-0.8,0.5-1.53,0.2-1.81,0.05s-0.92-0.61-0.92-1.56
				v-26.52c0-0.95,0.64-1.4,0.92-1.56c0.16-0.09,0.48-0.23,0.88-0.23c0.28,0,0.6,0.07,0.93,0.28v0l21.28,13.26
				c0.76,0.47,0.84,1.21,0.84,1.51C393.92,577.6,393.84,578.34,393.08,578.81z"></path>
		</g>
	</g>
	<g>
		<path class="st2" d="M87.29,482.93c-6.73-1.14-14.21-1.79-22.29-1.79s-15.56,0.65-22.29,1.79c-1.14,6.73-1.79,14.21-1.79,22.29
			s0.65,15.56,1.79,22.29c6.73,1.14,14.21,1.79,22.29,1.79s15.56-0.65,22.29-1.79c1.14-6.73,1.79-14.21,1.79-22.29
			S88.43,489.66,87.29,482.93z"></path>
		<path class="st2" d="M5.69,505.22c0,8.18,11.79,16.75,31.12,21.13c-1.01-6.6-1.56-13.7-1.56-21.13s0.55-14.53,1.56-21.13
			C17.48,488.47,5.69,497.04,5.69,505.22z"></path>
		<path class="st2" d="M65,475.47c7.43,0,14.53,0.55,21.13,1.56c-3.78-16.69-10.69-27.77-17.78-30.47c-1.11-0.06-2.22-0.1-3.35-0.1
			s-2.24,0.04-3.35,0.1c-7.09,2.7-14,13.77-17.78,30.47C50.47,476.02,57.56,475.47,65,475.47z"></path>
		<path class="st2" d="M65,534.97c-7.43,0-14.53-0.55-21.13-1.56c4.38,19.32,12.95,31.12,21.13,31.12s16.75-11.79,21.13-31.12
			C79.53,534.42,72.43,534.97,65,534.97z"></path>
		<path class="st2" d="M37.87,532.34c-14.53-2.98-26.06-8.32-32.41-15.01c4.37,25.15,24.28,44.96,49.48,49.18
			C47.29,560.69,41.16,548.33,37.87,532.34z"></path>
		<path class="st2" d="M124.3,505.22c0-8.18-11.79-16.75-31.12-21.13c1.01,6.6,1.56,13.7,1.56,21.13s-0.55,14.53-1.56,21.13
			C112.51,521.97,124.3,513.4,124.3,505.22z"></path>
		<path class="st2" d="M92.12,532.34c-3.28,15.99-9.41,28.35-17.07,34.17c25.2-4.22,45.11-24.03,49.48-49.18
			C118.18,524.03,106.65,529.36,92.12,532.34z"></path>
		<path class="st2" d="M37.87,478.1c2.62-12.76,7.05-23.21,12.63-29.87c-21.66,5.33-38.72,22.33-44.14,43.96
			C12.88,485.92,24.02,480.94,37.87,478.1z"></path>
		<path class="st2" d="M92.12,478.1c13.86,2.84,25,7.82,31.51,14.09c-5.42-21.63-22.48-38.63-44.14-43.96
			C85.07,454.89,89.5,465.34,92.12,478.1z"></path>
	</g>
	<g>
		<path d="M172.77,370.26c22.3,0,40.45,18.14,40.45,40.45v79.47c0,22.3-18.15,40.45-40.45,40.45H93.31
			c-22.3,0-40.45-18.14-40.45-40.45v-79.47c0-22.3,18.15-40.45,40.45-40.45H172.77 M172.77,366.01H93.31
			c-24.69,0-44.7,20.01-44.7,44.7v79.47c0,24.69,20.01,44.7,44.7,44.7h79.47c24.69,0,44.7-20.01,44.7-44.7v-79.47
			C217.47,386.02,197.46,366.01,172.77,366.01L172.77,366.01z"></path>
		<g>
			<path d="M167.7,407.5H98.38c-3.91,0-7.09,3.18-7.09,7.09v71.7c0,3.91,3.18,7.09,7.09,7.09h69.32c3.91,0,7.09-3.18,7.09-7.09
				v-71.7C174.79,410.68,171.61,407.5,167.7,407.5z M98.38,411.75h69.32c1.57,0,2.84,1.27,2.84,2.84v4.52h-75v-4.52
				C95.54,413.03,96.82,411.75,98.38,411.75z M167.7,489.13H98.38c-1.57,0-2.84-1.27-2.84-2.84v-62.92h75v62.92
				C170.54,487.86,169.26,489.13,167.7,489.13z"></path>
			<path d="M127.24,429.46h-22.53c-1.17,0-2.13,0.95-2.13,2.13v17.4c0,1.17,0.95,2.13,2.13,2.13h22.53c1.17,0,2.13-0.95,2.13-2.13
				v-17.4C129.37,430.41,128.42,429.46,127.24,429.46z M125.11,446.86h-18.28v-13.15h18.28V446.86z"></path>
			<path d="M127.24,457.82h-22.53c-1.17,0-2.13,0.95-2.13,2.13s0.95,2.13,2.13,2.13h22.53c1.17,0,2.13-0.95,2.13-2.13
				S128.42,457.82,127.24,457.82z"></path>
			<path d="M127.24,467.18h-22.53c-1.17,0-2.13,0.95-2.13,2.13s0.95,2.13,2.13,2.13h22.53c1.17,0,2.13-0.95,2.13-2.13
				S128.42,467.18,127.24,467.18z"></path>
			<path d="M161.37,438.95h-22.53c-1.17,0-2.13,0.95-2.13,2.13v17.4c0,1.17,0.95,2.13,2.13,2.13h22.53c1.17,0,2.13-0.95,2.13-2.13
				v-17.4C163.49,439.9,162.54,438.95,161.37,438.95z M159.24,456.36h-18.28v-13.15h18.28V456.36z"></path>
			<path d="M161.37,467.31h-22.53c-1.17,0-2.13,0.95-2.13,2.13s0.95,2.13,2.13,2.13h22.53c1.17,0,2.13-0.95,2.13-2.13
				S162.54,467.31,161.37,467.31z"></path>
			<path d="M161.37,476.68h-22.53c-1.17,0-2.13,0.95-2.13,2.13s0.95,2.13,2.13,2.13h22.53c1.17,0,2.13-0.95,2.13-2.13
				S162.54,476.68,161.37,476.68z"></path>
		</g>
	</g>
	<g>
		<path class="st2" d="M1078.7,336.62v34.24c4.49-0.89,8.1-2.72,10.74-5.45c2.96-3.05,4.39-6.79,4.39-11.44
			c0-4.34-1.26-7.74-3.86-10.39C1087.57,341.14,1083.79,338.8,1078.7,336.62z"></path>
		<path class="st2" d="M1052.49,302.45c0,4.05,1.17,7.23,3.57,9.72c2.21,2.3,5.84,4.51,10.82,6.6v-32.06
			c-4.12,0.73-7.51,2.38-10.09,4.91C1053.9,294.48,1052.49,298.02,1052.49,302.45z"></path>
		<path class="st2" d="M1070.54,220.28c-63.91,0-115.72,51.81-115.72,115.72s51.81,115.72,115.72,115.72s115.72-51.81,115.72-115.72
			S1134.45,220.28,1070.54,220.28z M1098.8,374.59c-5.14,5.14-11.9,8.3-20.1,9.39v12.22c0,0.78-0.63,1.42-1.42,1.42h-8.99
			c-0.78,0-1.42-0.63-1.42-1.42v-12.01c-7.75-0.66-14.48-2.87-20.04-6.58c-5.91-3.94-10.22-9.3-12.81-15.94
			c-0.25-0.65,0-1.39,0.61-1.74l8.99-5.24c0.36-0.21,0.8-0.25,1.2-0.11c0.4,0.14,0.71,0.45,0.85,0.85
			c3.36,9.28,10.31,14.42,21.21,15.69v-38.76c-7.75-2.75-14.05-5.93-18.75-9.46c-5.94-4.45-8.95-11.34-8.95-20.45
			c0-8.16,2.77-14.9,8.23-20.05c5.3-5.01,11.85-8.01,19.47-8.93v-12.05c0-0.78,0.63-1.42,1.42-1.42h8.99c0.78,0,1.42,0.63,1.42,1.42
			v12.24c5.7,0.85,10.81,2.89,15.21,6.08c4.73,3.43,8.39,8.11,10.88,13.92c0.29,0.67,0.02,1.44-0.61,1.79l-8.84,4.94
			c-0.36,0.2-0.78,0.24-1.17,0.1c-0.39-0.14-0.69-0.44-0.84-0.82c-2.72-6.93-7.52-11.11-14.63-12.73v36.2
			c8.05,2.77,14.47,6.06,19.09,9.8c6.21,4.84,9.36,11.92,9.36,21.02C1107.15,362.11,1104.34,369.05,1098.8,374.59z"></path>
	</g>
</g>
</svg>
