<svg viewBox="0 0 24 24" width="960" height="960" fill="currentColor" class="x14rh7hd" style="--x-color:rgb(var(--ig-secondary-icon));"><title>Reels</title><g stroke="currentColor" stroke-linejoin="round" stroke-width="2px"><path d="M2.0493 7.002 21.9503 7.002" fill="none"></path><path stroke-linecap="round" d="M13.50427 2.001 16.36227 7.002" fill="none"></path><path stroke-linecap="round" d="M7.20677 2.1099 10.00177 7.0019" fill="none"></path><path d="M2 12.001v3.449c0 2.849.698 4.006 1.606 4.945.94.908 2.098 1.607 4.946 1.607h6.896c2.848 0 4.006-.699 4.946-1.607.908-.939 1.606-2.096 1.606-4.945V8.552c0-2.848-.698-4.006-1.606-4.945C19.454 2.699 18.296 2 15.448 2H8.552c-2.848 0-4.006.699-4.946 1.607C2.698 4.546 2 5.704 2 8.552z" stroke-linecap="round" fill="none"></path></g><path d="M9.763 17.664a.908.908 0 0 1-.454-.787V11.63a.909.909 0 0 1 1.364-.788l4.545 2.624a.909.909 0 0 1 0 1.575l-4.545 2.624a.91.91 0 0 1-.91 0z" fill-rule="evenodd"></path></svg>
